<svg width="39" height="37" viewBox="0 0 39 37" fill="none" xmlns="http://www.w3.org/2000/svg">
<path fill-rule="evenodd" clip-rule="evenodd" d="M19.5 0C8.73045 0 0 8.28273 0 18.5C0 28.7173 8.73045 37 19.5 37C30.2696 37 39 28.7173 39 18.5C39 8.28273 30.2696 0 19.5 0ZM15.2127 8.69294C16.322 8.64505 16.6765 8.63333 19.501 8.63333H19.4977C22.3231 8.63333 22.6763 8.64505 23.7856 8.69294C24.8928 8.74104 25.649 8.90734 26.312 9.15134C26.9966 9.40315 27.5751 9.74026 28.1536 10.2891C28.7322 10.8375 29.0875 11.388 29.354 12.037C29.6097 12.6643 29.7852 13.3813 29.8372 14.4317C29.887 15.4842 29.9 15.8205 29.9 18.5001C29.9 21.1798 29.887 21.5152 29.8372 22.5677C29.7852 23.6177 29.6097 24.3349 29.354 24.9624C29.0875 25.6112 28.7322 26.1616 28.1536 26.7101C27.5758 27.2589 26.9964 27.5969 26.3126 27.8489C25.6509 28.0929 24.8943 28.2592 23.7871 28.3073C22.6778 28.3552 22.3244 28.3669 19.4997 28.3669C16.6754 28.3669 16.3211 28.3552 15.2118 28.3073C14.1048 28.2592 13.3489 28.0929 12.6872 27.8489C12.0036 27.5969 11.4233 27.2589 10.8455 26.7101C10.2672 26.1616 9.91186 25.6112 9.64601 24.9622C9.38904 24.3349 9.21375 23.6179 9.16283 22.5675C9.11257 21.515 9.1 21.1798 9.1 18.5001C9.1 15.8205 9.113 15.484 9.16262 14.4315C9.21245 13.3815 9.38795 12.6643 9.64579 12.0368C9.91229 11.388 10.2676 10.8375 10.8461 10.2891C11.4242 9.74047 12.0044 9.40335 12.6885 9.15134C13.3497 8.90734 14.1055 8.74104 15.2127 8.69294Z" fill="white"/>
<path fill-rule="evenodd" clip-rule="evenodd" d="M18.568 10.4114C18.7492 10.4111 18.9441 10.4112 19.1544 10.4113L19.501 10.4114C22.2778 10.4114 22.607 10.4209 23.7035 10.4681C24.7175 10.5121 25.2679 10.6729 25.6345 10.8079C26.1198 10.9868 26.4658 11.2005 26.8296 11.5459C27.1936 11.8912 27.419 12.2201 27.6079 12.6806C27.7503 13.028 27.9199 13.5501 27.9661 14.5121C28.0159 15.5522 28.0267 15.8646 28.0267 18.4978C28.0267 21.131 28.0159 21.4435 27.9661 22.4836C27.9197 23.4456 27.7503 23.9677 27.6079 24.3151C27.4194 24.7756 27.1936 25.1034 26.8296 25.4486C26.4656 25.7939 26.12 26.0077 25.6345 26.1865C25.2683 26.3222 24.7175 26.4825 23.7035 26.5265C22.6072 26.5738 22.2778 26.5841 19.501 26.5841C16.724 26.5841 16.3949 26.5738 15.2985 26.5265C14.2845 26.4821 13.7342 26.3214 13.3673 26.1863C12.882 26.0075 12.5353 25.7937 12.1713 25.4484C11.8073 25.103 11.582 24.775 11.3931 24.3143C11.2507 23.9669 11.081 23.4448 11.0349 22.4828C10.9851 21.4427 10.9751 21.1302 10.9751 18.4954C10.9751 15.8605 10.9851 15.5497 11.0349 14.5096C11.0813 13.5476 11.2507 13.0255 11.3931 12.6777C11.5816 12.2172 11.8073 11.8883 12.1713 11.543C12.5353 11.1977 12.882 10.9839 13.3673 10.8046C13.7339 10.669 14.2845 10.5086 15.2985 10.4644C16.2579 10.4233 16.6297 10.411 18.568 10.4089V10.4114ZM25.0525 12.0497C24.3635 12.0497 23.8045 12.5794 23.8045 13.2333C23.8045 13.887 24.3635 14.4173 25.0525 14.4173C25.7415 14.4173 26.3005 13.887 26.3005 13.2333C26.3005 12.5796 25.7415 12.0493 25.0525 12.0493V12.0497ZM14.1601 18.5001C14.1601 15.7019 16.5514 13.4332 19.5008 13.4331C22.4503 13.4331 24.841 15.7018 24.841 18.5001C24.841 21.2984 22.4505 23.5661 19.501 23.5661C16.5515 23.5661 14.1601 21.2984 14.1601 18.5001Z" fill="white"/>
<path d="M19.5009 15.2112C21.4154 15.2112 22.9676 16.6836 22.9676 18.5001C22.9676 20.3164 21.4154 21.789 19.5009 21.789C17.5862 21.789 16.0342 20.3164 16.0342 18.5001C16.0342 16.6836 17.5862 15.2112 19.5009 15.2112Z" fill="white"/>
</svg>
