<svg width="39" height="37" viewBox="0 0 39 37" fill="none" xmlns="http://www.w3.org/2000/svg">
<path fill-rule="evenodd" clip-rule="evenodd" d="M19.5 0C8.73045 0 0 8.28273 0 18.5C0 28.7173 8.73045 37 19.5 37C30.2696 37 39 28.7173 39 18.5C39 8.28273 30.2696 0 19.5 0ZM18.9569 15.6772L18.916 15.037C18.7932 13.3779 19.8708 11.8625 21.5757 11.2746C22.2032 11.0655 23.2671 11.0394 23.9627 11.2223C24.2355 11.3007 24.7538 11.562 25.1221 11.7971L25.7905 12.2282L26.527 12.0062C26.9362 11.8886 27.4818 11.6926 27.7273 11.562C27.9592 11.4444 28.1638 11.3791 28.1638 11.4183C28.1638 11.6404 27.6591 12.3981 27.2363 12.8161C26.6634 13.404 26.8271 13.4563 27.9865 13.0643C28.6821 12.8423 28.6957 12.8423 28.5593 13.0905C28.4775 13.2211 28.0547 13.6784 27.6046 14.0964C26.8407 14.8149 26.7998 14.8933 26.7998 15.4943C26.7998 16.4218 26.3361 18.3553 25.8723 19.4135C25.013 21.3993 23.1716 23.4503 21.3302 24.4824C18.7387 25.9325 15.2878 26.2983 12.3825 25.4491C11.4141 25.1617 9.75 24.4301 9.75 24.2995C9.75 24.2603 10.2547 24.208 10.8685 24.195C12.1506 24.1688 13.4328 23.8292 14.5239 23.2282L15.2605 22.8102L14.4148 22.5358C13.2145 22.1439 12.137 21.2425 11.8642 20.3933C11.7823 20.119 11.8096 20.1059 12.5734 20.1059L13.3646 20.0928L12.6962 19.7924C11.9051 19.4135 11.1822 18.7734 10.8275 18.1202C10.5684 17.6499 10.241 16.461 10.3365 16.3696C10.3638 16.3304 10.6502 16.4088 10.9776 16.5133C11.9187 16.8399 12.0415 16.7615 11.4959 16.2128C10.4729 15.2199 10.1592 13.7437 10.6502 12.3458L10.8821 11.7187L11.7823 12.5679C13.6237 14.2793 15.7925 15.2983 18.2749 15.5988L18.9569 15.6772Z" fill="white"/>
</svg>
