<svg width="39" height="37" viewBox="0 0 39 37" fill="none" xmlns="http://www.w3.org/2000/svg">
<path fill-rule="evenodd" clip-rule="evenodd" d="M19.5 0C8.73045 0 0 8.28273 0 18.5C0 28.7173 8.73045 37 19.5 37C30.2696 37 39 28.7173 39 18.5C39 8.28273 30.2696 0 19.5 0ZM9.36131 15.3225H13.7804V27.9192H9.36131V15.3225ZM14.0715 11.4258C14.0428 10.1907 13.1118 9.25 11.6001 9.25C10.0883 9.25 9.1 10.1907 9.1 11.4258C9.1 12.6353 10.0591 13.6032 11.5427 13.6032H11.571C13.1118 13.6032 14.0715 12.6353 14.0715 11.4258ZM24.6294 15.0267C27.5374 15.0267 29.7175 16.8275 29.7175 20.6967L29.7173 27.9192H25.2984V21.18C25.2984 19.4872 24.6589 18.3321 23.0592 18.3321C21.8383 18.3321 21.1111 19.1108 20.7917 19.8629C20.6749 20.1325 20.6462 20.508 20.6462 20.8845V27.9196H16.2265C16.2265 27.9196 16.2848 16.5049 16.2265 15.3228H20.6462V17.1071C21.2327 16.2494 22.2832 15.0267 24.6294 15.0267Z" fill="white"/>
</svg>
