<svg width="1440" height="704" viewBox="0 0 1440 704" fill="none" xmlns="http://www.w3.org/2000/svg">
<path d="M1 1H742.588H1439V703H1V1Z" fill="#000080" stroke="black" stroke-width="2"/>
<path d="M174 374C174 363.507 182.507 355 193 355H627.474C637.967 355 646.474 363.507 646.474 374V391.784C646.474 402.278 637.967 410.784 627.474 410.784H193C182.507 410.784 174 402.278 174 391.784V374ZM174 450.216C174 439.722 182.507 431.216 193 431.216H627.474C637.967 431.216 646.474 439.722 646.474 450.216V468C646.474 478.493 637.967 487 627.474 487H193C182.507 487 174 478.493 174 468V450.216ZM747.526 374C747.526 363.507 756.033 355 766.526 355H1201C1211.49 355 1220 363.507 1220 374V391.784C1220 402.278 1211.49 410.784 1201 410.784H766.526C756.033 410.784 747.526 402.278 747.526 391.784V374ZM747.526 450.216C747.526 439.722 756.033 431.216 766.526 431.216H1201C1211.49 431.216 1220 439.722 1220 450.216V468C1220 478.493 1211.49 487 1201 487H766.526C756.033 487 747.526 478.493 747.526 468V450.216Z" fill="white" stroke="black" stroke-width="2"/>
<path d="M1256.5 546L1271.66 569.25H1241.34L1256.5 546Z" fill="white"/>
</svg>
